<?xml version="1.0" standalone="no"?>
<!DOCTYPE svg PUBLIC "-//W3C//DTD SVG 20010904//EN"
 "http://www.w3.org/TR/2001/REC-SVG-20010904/DTD/svg10.dtd">
<svg version="1.0" xmlns="http://www.w3.org/2000/svg"
 width="560.000000pt" height="560.000000pt" viewBox="0 0 560.000000 560.000000"
 preserveAspectRatio="xMidYMid meet">
<metadata>
Created by potrace 1.11, written by Peter Selinger 2001-2013
</metadata>
<g transform="translate(0.000000,560.000000) scale(0.100000,-0.100000)"
fill="#000000" stroke="none">
<path d="M4 5461 c-2 -2 -4 -1203 -4 -2668 l0 -2663 852 2 853 3 0 952 c0 523
2 950 5 948 7 -4 77 -106 464 -670 177 -258 356 -519 397 -580 42 -60 109
-158 149 -218 40 -59 76 -107 80 -107 4 0 58 75 121 168 95 140 165 243 219
322 6 8 167 245 358 525 191 281 357 524 369 540 l22 30 0 -890 c0 -490 1
-920 1 -957 l0 -68 850 0 850 0 0 2668 0 2667 -703 0 -703 0 -122 -180 c-67
-99 -167 -247 -223 -330 -134 -198 -370 -547 -554 -820 -82 -121 -172 -254
-200 -295 -28 -41 -98 -145 -155 -230 -141 -212 -126 -198 -164 -142 -45 66
-233 342 -334 492 -118 173 -242 356 -327 480 -39 58 -119 175 -177 260 -255
378 -512 755 -516 760 -5 6 -1402 7 -1408 1z m1016 -655 c17 -23 211 -307 356
-521 53 -77 143 -210 202 -297 59 -86 165 -241 235 -345 206 -303 326 -479
427 -626 52 -76 102 -149 110 -162 8 -12 56 -83 106 -156 196 -288 297 -435
317 -466 12 -18 24 -33 27 -33 3 0 28 35 57 78 28 42 92 138 143 212 51 74
156 230 234 345 77 116 144 215 149 220 4 6 38 55 75 110 121 179 343 506 478
705 73 107 186 274 251 370 65 96 178 263 250 370 73 107 134 199 136 204 2 6
48 11 110 11 l107 1 0 -2028 0 -2028 -103 0 -102 0 0 1830 c0 1007 -2 1830 -5
1830 -4 -1 -77 -106 -356 -515 -42 -60 -211 -308 -377 -551 -166 -242 -468
-684 -672 -982 -203 -298 -372 -542 -375 -542 -3 0 -187 266 -410 590 -223
325 -480 699 -572 833 -91 133 -190 276 -218 317 -28 41 -130 190 -227 330
-97 140 -218 317 -269 393 l-94 138 0 -43 c0 -24 0 -850 -1 -1836 l0 -1792
-104 0 -105 0 0 2028 0 2028 103 0 c90 0 104 -2 117 -20z"/>
</g>
</svg>
